<svg xmlns="http://www.w3.org/2000/svg" viewBox="0 0 567 549"><defs><style>.a{fill:#ffc12c;}.b,.c{fill:none;stroke:#fff;stroke-miterlimit:10;stroke-width:6px;}.c{stroke-linecap:round;}.d{fill:#fff;}</style></defs><title>icons</title><circle class="a" cx="283.61" cy="281.87" r="198.93"/><path class="b" d="M288,332a53,53,0,0,1-25.5-6,12.34,12.34,0,0,1-6.65-9.21c-2.87-14.51-1.3-28.26,7.56-40.53,2.18-3,5.17-5.47,7.83-8.14,1-.95,1.84-.87,3.12-.09,9.62,5.89,19.33,6,29,0a2.33,2.33,0,0,1,3.14.12c8.86,6.79,13.6,16,15.77,26.69a54.3,54.3,0,0,1-.89,24,10.67,10.67,0,0,1-5.48,6.89C307.49,330.46,298.41,332,288,332Z"/><path class="b" d="M252.25,315a35.25,35.25,0,0,1-3.9,1c-9.79,1.38-19.26.68-28.14-4.23a8.26,8.26,0,0,1-4.17-6c-2.4-12.05-.92-23.27,7.36-33,.32-.38.7-.71,1-1.07,3.23-3.2,3.19-3.11,7.26-1.33,6.45,2.82,12.85,2.81,18.95-1,1.42-.88,2.43-.79,3.52.33.35.36.86.58,1.19,1,1.29,1.43,3.23,2.75,3.61,4.4.33,1.49-1,3.43-1.74,5.06A56.59,56.59,0,0,0,252.25,315Z"/><path class="b" d="M310.38,250.23c-.28,12-10,21.53-21.7,21.35a21.54,21.54,0,1,1,.41-43.08C301,228.7,310.65,238.6,310.38,250.23Z"/><path class="b" d="M325.3,316.21c2.64-16.63-.22-31.82-10.87-45,2.71-3,2.63-2.9,5.89-1.24,6.42,3.25,12.93,3.26,19.16-.44,1.74-1,2.75-.92,4.16.37,10.26,9.43,12.82,21.06,10.64,34.47-1.08,6.62-6,8.29-10.89,10.21C338.65,316.43,330.9,317,325.3,316.21Z"/><path class="b" d="M313.74,256.51c-.45-8.53,7-16,15.82-16a15.93,15.93,0,1,1-.11,31.86C320.44,272.38,313.31,264.58,313.74,256.51Z"/><path class="b" d="M256.34,256.33a15.94,15.94,0,1,1-15.85-15.81A15.82,15.82,0,0,1,256.34,256.33Z"/><path class="c" d="M236.24,360.66c3.61-1.24,11.66-1.63,16.11-.8,4.91.93,13.73,4.05,21.64,5.64s23.16-1.26,21-12.45-14.13-12.1-23-14.77-24-.8-27.92-2.1-16.88-8.8-30.39-15.83-24.17-5.33-30.3-3.79a40.88,40.88,0,0,0-9.58,3.78A5.35,5.35,0,0,1,172,321l-8.11,1.17-6.59,1L166.4,376s10.58-.7,12.57-.55,27.55,7.09,31.46,8.38,31.39,9.39,33.38,9.54,15.18-1.87,21.32-3.41,22.61-7.32,26.68-8,12.34-4.09,15.48-5.85,27.35-17,29.5-18.84,14.08-8,15-12.91c.83-4.45-.32-9.05-5.23-10.42s-8.79.38-12.2,2.09c-2.6,1.3-13.56,7-16.63,7.77s-22.92,4.79-22.92,4.79"/><path class="b" d="M161.35,380.5l-22.75,4.4a5.47,5.47,0,0,1-6.44-4.51l-9.49-59.61a5.47,5.47,0,0,1,4.48-6.26L149,310.78a5.47,5.47,0,0,1,6.31,4.44l10.43,59A5.47,5.47,0,0,1,161.35,380.5Z"/><circle class="d" cx="147.13" cy="365.48" r="7"/><path class="c" d="M319.44,195.44c-3.51,1.48-11.52,2.44-16,1.91-5-.58-14-3.09-22-4.13s-23,2.86-20.08,13.88,14.93,11.09,23.92,13.14,24-.86,28,.17,17.45,7.6,31.42,13.69,24.47,3.64,30.49,1.68a40.57,40.57,0,0,0,9.28-4.43,5.29,5.29,0,0,1,1.75-.73l8-1.73,6.51-1.46-12.69-52.07s-10.51,1.43-12.51,1.42-28-5.17-32-6.19-32-7.19-34-7.21-15,2.91-21,4.88-22.05,8.87-26.06,9.84-12,4.93-15,6.91-26.12,18.85-28.13,20.83-13.5,8.95-14.08,13.92c-.53,4.5.94,9,5.94,10s8.74-1,12-2.92c2.51-1.49,13-7.92,16.05-8.91s22.54-6.36,22.54-6.36"/><path class="b" d="M392.78,170.47l22.39-6a5.47,5.47,0,0,1,6.74,4.05l13.59,58.82a5.48,5.48,0,0,1-4,6.55L410,239.17a5.48,5.48,0,0,1-6.61-4l-14.47-58.09A5.48,5.48,0,0,1,392.78,170.47Z"/><circle class="d" cx="408" cy="184.48" r="7"/></svg>