<svg xmlns="http://www.w3.org/2000/svg" viewBox="0 0 774 708"><defs><style>.a{fill:#ffc12c;}</style></defs><title>icons</title><path class="a" d="M74,639.7V450.12c2.86-.15,5.55-.41,8.24-.41,78.89,0,157.78.1,236.66-.2,7.88,0,10,2.25,9.83,9.89-.48,20.2-.19,40.42-.14,60.63,0,3.29.31,6.57.52,10.55H355c32.84,0,65.69.19,98.54-.15,6.72-.07,8.66,2,8.6,8.56-.28,30-.45,60.08.07,90.11.15,8.66-2.5,10.8-10.94,10.79q-179-.4-357.95-.19ZM199.75,491l-58,58c6.87,0,12.45.32,18-.08,7-.51,9.45,2.28,9.17,9.24-.45,10.86-.12,21.74-.12,33h59c0-9.08-.05-17.69,0-26.29.14-18.5-1.62-15.57,15.5-15.92,4-.08,7.92-.4,11.78-.61Z"/><path class="a" d="M239.61,441.93c-8.21-2.7-16.23-5-23.92-8.15-1.54-.63-3.11-4.79-2.49-6.56,9.86-28.16,19.9-56.25,30.37-84.18,1.85-4.93,1.7-7.7-2.1-11.66-16.17-16.9-31.85-34.29-47.75-51.46-.9-1-2.2-1.55-4.4-3.06-6.54,11.73-13.33,22.81-19.08,34.41C148,356.13,119.36,396.9,89.85,437.1c-1.41,1.92-5.76,1.69-8.75,2.43-.22.05-.54-.15-.77-.3-16.9-10.88-18.57-4.68-8.15-24.6,12.23-23.39,24.66-46.7,35.76-70.62,5.25-11.29,7.45-24,11.28-35.94,8.88-27.86,13.9-57.63,30.68-81.94,12-17.44,28.3-32.11,43.51-47.17,11.82-11.7,24.93-22.1,39.92-35.23-8-7-15.33-13.72-23-20-1.54-1.25-4.56-1.63-6.62-1.16-24.26,5.52-48.53,11-72.63,17.17-5.83,1.49-8.39.24-9.8-5.13-.78-3-2.46-5.86-2.47-8.79,0-2.33,1.4-6.25,3-6.78,19.64-6.35,39.42-12.24,59.21-18.12,4-1.19,8.25-1.57,12.27-2.71,22.4-6.34,42.55,1.14,62.32,10.28a168.75,168.75,0,0,1,21.18,11.82,10.27,10.27,0,0,1,4.05,7.48c-.45,24.62,20,37.83,43.2,25.88,9.11,13.61,18.56,27.26,27.48,41.25,6,9.38,10.33,19.93,17.1,28.65,4.56,5.87,11.8,9.87,18.32,13.95,12.69,8,25.72,15.38,38.23,22.81,0,1.38.21,2,0,2.4-3.83,5.78-6.6,14.29-11.92,16.42-4.41,1.76-12-3.7-17.89-6.51-14.82-7-30.15-13.31-44-21.92-11-6.81-20.09-16.65-30-25.14-.22-.18-.36-.45-.59-.6-8.11-5.34-15.61-12.49-24.51-15.52-10.74-3.66-16.35,8-24.15,12.89-11.33,7-21.62,15.71-32.64,23.27-4.39,3-4.51,5.29-1.33,9.29,14.91,18.76,29.36,37.9,44.47,56.5,7.5,9.22,9.61,18.56,4.52,29.42q-19.68,42-39.29,83.95C245.22,430.33,242.54,435.81,239.61,441.93Z"/><path class="a" d="M679.19,639.32c-11.65-19.91-22.76-38.82-33.79-57.78-8.58-14.73-17.85-29.13-25.38-44.38-9.22-18.67-17-38.06-25.29-57.18-3.66-8.44-6.72-17.15-10.72-25.42-1-2-4.62-4-6.9-3.81-21.23,1.41-42.46,3-63.63,5.13-13.93,1.4-18.21,6.54-18,21.08.33,21.3.86,42.62,2,63.89.41,8-1.69,11.34-10.09,10.37-5.79-.66-11.72-.12-18.41-.12-.31-3.89-.61-7.15-.84-10.41-1.67-24.05-3.1-48.11-5.05-72.13-2.17-26.76,10.63-41.76,37.44-44.19,15.27-1.39,30.43-3.88,46.75-6-3.31-11.33-6.38-22.28-9.71-33.15-6.29-20.54-12.51-41.11-19.33-61.48-1-3-4.8-6.52-7.86-7.17-28.92-6.21-55.19-19.12-81.8-31.28-6.66-3-8.28-6.45-4.52-12.74,1.83-3.06,3-6.53,5.06-11.32,6.87,2.15,14.13,3.82,20.9,6.66,26.87,11.3,55.54,14.57,83.86,19.49a11.39,11.39,0,0,1,6.14,3.2c7.84,8.72,18.73,10.73,27.59,6.05,14.48-7.67,26.77-2.86,37.75,4.22,14.16,9.15,26.72,20.85,39.59,31.89a248.4,248.4,0,0,1,23.42,22.57c4.13,4.61,8.32,10.46,9.37,16.31,4.12,23,7,46.29,10.36,69.46l-2.48.35c-.46.29-.91.8-1.4.84-16.17,1.39-16.56,1.48-20.59-13.77a366,366,0,0,1-8.24-38.57c-1.22-8-3.79-14.18-10.42-19-11.47-8.36-22.52-17.3-34-25.69-2.11-1.54-5.3-1.6-8-2.35.31,2.59.06,5.41,1,7.73,9,21.61,19.22,42.77,27,64.81,6.26,17.82,10.16,36.55,14.08,55.09,6.45,30.56,12.61,61,27.56,89.06,10.33,19.4,18.53,39.93,27.89,59.86,3.08,6.55,1.41,10.19-5.35,12.56C690,633.77,685.08,636.56,679.19,639.32Z"/><path class="a" d="M316,151.65c-20.16.08-31.36-11.89-33.65-33.41-1.71-16,9.75-37.79,23.82-45.2,23.42-12.33,47.08,2.29,48.46,29.92,1,19.7-12.66,40.44-31.19,47.09A41,41,0,0,1,316,151.65Z"/><path class="a" d="M529.92,253.29c1.29-12.3,7.55-26.28,24.19-34.07,17.28-8.1,35.88.88,39.34,21.63a44.3,44.3,0,0,1-10.07,36.94c-9.07,10.89-23.46,15.79-34.47,11.83C536.88,285.29,529.86,273.67,529.92,253.29Z"/></svg>