<svg xmlns="http://www.w3.org/2000/svg" viewBox="0 0 567 549"><defs><style>.a{fill:#ffc12c;}.b,.d{fill:none;stroke:#fff;stroke-linecap:round;stroke-miterlimit:10;}.b{stroke-width:6px;}.c{fill:#fff;}.d{stroke-width:7px;}</style></defs><title>icons</title><circle class="a" cx="289.93" cy="269.87" r="198.93"/><path class="b" d="M363.24,373.54l6.52-1.81a8.27,8.27,0,0,1,10.51,5.4l10.31,32.78a8.76,8.76,0,0,1-5.47,10.84L313.45,445.4a8.26,8.26,0,0,1-10.59-5.18l-11.51-34.05a8.75,8.75,0,0,1,5.55-11.06l9.72-3.35"/><ellipse class="c" cx="315.86" cy="416.93" rx="11.01" ry="10.75" transform="translate(-201.52 493.82) rotate(-61.31)"/><path class="b" d="M276.28,247.24c1.68-.71,3.12-1.4,4.62-1.93,6.69-2.36,16.6.56,21.13,6,.51.61,6.55,25.55,7,25.66s-7.71-25.19-7-25.66c7.66-4.94,19.62-3,25.66,3.5.76.82,8.71,34.9,9.33,35s-10.19-34.41-9.33-35c3.5-2.33,11-3.21,15.87-1.37,6.7,2.54,10.37,7.73,12.58,14.17,2.58,7.49,5,15.05,7.53,22.55,3.51,10.37,6.78,20.75,6.38,31.93-.25,6.9-1.88,13.3-6,18.88a6.07,6.07,0,0,0-.8,6c2.5,7.84,5,15.69,7.59,24L296,395.3c-2.21-5.52-4.5-10.84-6.49-16.26-3.28-9-9.5-15.6-16.27-22a268,268,0,0,0-42.75-33c-5.52-3.42-10.39-7.63-13.6-13.51-5.79-10.64,1.28-21.92,11-24.41A19.61,19.61,0,0,1,244,289c3.5,2.26,7,4.43,11.18,7-1-3.34-1.73-6.09-2.61-8.8-3.92-11.95-7.91-23.88-11.82-35.84-3-9.17-6-18.35-8.88-27.57-2.09-6.71-.25-12.67,4.72-17.35,4.81-4.53,10.62-6.11,17.16-3.88s10.27,6.71,11.84,13.33c.59,2.5,1.71,4.88,2.53,7.33,2.53,7.56,5,15.13,7.56,22.7.07.2,9.5,29.47,7.7,24.08C281,263,276.16,247,276.28,247.24Z"/><path class="c" d="M169.61,168a27.73,27.73,0,0,1,.11-5.66c2.48-23.12,13.78-40.23,34.59-50.92a62.21,62.21,0,0,1,25.33-6.4c3.77-.2,7.6.63,11.4,1.08,11.65,1.38,21.66,6.49,30.51,13.93a59.11,59.11,0,0,1,20,33c4.24,18.9.17,36.17-11.34,51.7-3.07,4.15-7.08,4.57-11,2.19a5.93,5.93,0,0,1-1.45-8.93,49.91,49.91,0,0,0,9.36-17.39,45.47,45.47,0,0,0,1.32-22c-2.75-14-10-24.9-22.13-32.41a46,46,0,0,0-32.71-6.45c-15.74,2.62-27.3,11.22-34.78,25.14a45.08,45.08,0,0,0-4.79,29.32c2.8,16.8,12,28.8,27.31,36.18a52.82,52.82,0,0,0,8.36,3.05c4.64,1.35,5.36,4.75,4.48,7.9-1.12,4-4.12,6.44-8.16,5.44a59.27,59.27,0,0,1-16.61-6.94,61,61,0,0,1-24.12-26.72A59.7,59.7,0,0,1,169.61,168Z"/><path class="d" d="M258.79,166.91c.42,15-12.64,27.72-27.6,27.54a27.66,27.66,0,0,1-27.43-27.61c-.12-15,12.73-27.73,27.65-27.51C247,139.55,259.05,152.13,258.79,166.91Z"/></svg>