<svg xmlns="http://www.w3.org/2000/svg" viewBox="0 0 567 549"><defs><style>.a{fill:#ffc12c;}.b,.d{fill:none;stroke:#fff;stroke-miterlimit:10;stroke-width:6px;}.c{fill:#fff;}.d{stroke-linecap:round;}</style></defs><title>icons</title><circle class="a" cx="283.6" cy="282" r="198.93"/><path class="b" d="M225,343l-5-4.86a7.09,7.09,0,0,0-10.09.6l-20.37,23.13a7.5,7.5,0,0,0,.73,10.58l60.9,52.62a7.08,7.08,0,0,0,10.09-.79l19-22.53a7.49,7.49,0,0,0-.74-10.38L274,388"/><ellipse class="c" cx="217.26" cy="365.63" rx="9.22" ry="9.44" transform="translate(-37.03 24.71) rotate(-6)"/><path class="c" d="M272,235.28c5.25-5.32,10.19-10.39,15.19-15.41q25.47-25.5,51-51c11.28-11.25,29-8.36,35.9,5.94a21.93,21.93,0,0,1-4.73,25.08c-13.08,12.87-26,25.9-39,38.87a16.29,16.29,0,0,0-1.08,1.35c11.17,4.73,16.53,12.93,15.25,25.27A22.6,22.6,0,0,1,364.87,290c3,1,5.95,1.68,8.59,3,5.92,2.92,9.38,7.83,10.91,14.26,1.83,7.71-.4,13.91-5.9,19.49-12.39,12.56-24.51,25.39-36.83,38-6.22,6.38-12.47,12.72-19,18.75a42.88,42.88,0,0,1-21.91,10.56c-13.79,2.48-26.25-.8-37.69-8.62-9.4-6.41-17-14.8-24.77-22.92-5.27-5.49-10.37-11.16-15.21-17a39.32,39.32,0,0,1-8.24-18.4c-1.25-6.84-.37-13.4,1.1-20.07,1.35-6.06,2.11-12.25,3.15-18.38,1-5.73,2.18-11.44,2.95-17.2,1.06-8,3.11-15.92,2.58-24.12a60.25,60.25,0,0,0-6.5-24.21c-4.1-7.94-8.32-15.81-12.35-23.78-3.22-6.36-.13-14.63,6.8-18.43a26.54,26.54,0,0,1,13.63-3.5c7.57.2,13.94,3,18.46,9.22,5.08,7,10.25,14,15,21.29a104.72,104.72,0,0,1,11.78,25.77C271.48,234.06,271.67,234.41,272,235.28Zm105.1,83.1a2.06,2.06,0,0,1,.11-.48,15.18,15.18,0,0,0-7.3-19.54c-3.56-1.65-6.6-1.34-9.37,1.41-4.6,4.59-9.18,9.21-13.82,13.76-2.05,2-4.81,1.65-5.86-.72-.83-1.87-.15-3.46,1.28-4.87q6.92-6.79,13.73-13.69a7.07,7.07,0,0,0,1.8-2.73,15.54,15.54,0,0,0-9.91-18.85c-2.88-.95-5.45-1.05-7.92,1.76-4.29,4.86-9.09,9.29-13.75,13.83a3.49,3.49,0,0,1-5.94-1.4c-.53-1.87.43-3.2,1.67-4.44,4.83-4.81,9.69-9.58,14.41-14.49a7.48,7.48,0,0,0,1.86-3.85c1-7.14-1.91-12.82-8.17-16.43-4.14-2.4-5.27-2.22-8.58,1.1-4.74,4.76-9.49,9.52-14.31,14.21-1.9,1.86-4.2,1.37-5.41-1-1-1.83-.59-3,1.67-5.22q30.8-30.78,61.57-61.59c4.42-4.43,6-9.74,4-15.81A15.39,15.39,0,0,0,343.3,173q-24.87,24.78-49.64,49.65-10.29,10.28-20.55,20.58c-1.13,1.13-2.33,1.91-3.91,1.42a3.37,3.37,0,0,1-2.36-3.17,16,16,0,0,0-.67-2.31c-2.07-7.48-4.59-14.84-8.56-21.52-4.08-6.87-8.62-13.47-13.09-20.1a64.09,64.09,0,0,0-6.88-9.1c-6.25-6.44-17.55-5.71-23.91-.45a7.42,7.42,0,0,0-2.1,8.75c2.42,4.76,5,9.45,7.42,14.19,4.39,8.45,9,16.76,10.77,26.35a73.66,73.66,0,0,1,.63,21.82c-.75,6.5-2.18,12.92-3.24,19.39-1,6-1.83,12-2.86,18-1.1,6.45-2.46,12.87-3.47,19.33a32.57,32.57,0,0,0,1.93,16.18,42.49,42.49,0,0,0,9.38,14.55c8.21,8.77,16.54,17.45,25.13,25.84,7.39,7.21,15.84,12.82,26.19,15.12a39.46,39.46,0,0,0,19.26-.52c7.74-2.15,14.21-6.49,19.82-12.26C334.66,362.35,346.85,350,359,337.71c.5-.51,12-12.15,14.13-14.42C373.25,323.19,375.72,320.09,377.14,318.38Z"/><line class="d" x1="282.81" y1="166.85" x2="282.81" y2="136"/><line class="d" x1="248.61" y1="157.41" x2="271.07" y2="179.66"/><line class="d" x1="317.24" y1="157.2" x2="294.73" y2="178.82"/></svg>